<?xml version="1.0" standalone="no"?>
<!DOCTYPE svg PUBLIC "-//W3C//DTD SVG 20010904//EN"
 "http://www.w3.org/TR/2001/REC-SVG-20010904/DTD/svg10.dtd">
<svg version="1.0" xmlns="http://www.w3.org/2000/svg"
 width="16.000000pt" height="16.000000pt" viewBox="0 0 16.000000 16.000000"
 preserveAspectRatio="xMidYMid meet">
<metadata>
Created by potrace 1.11, written by Peter Selinger 2001-2013
</metadata>
<g transform="translate(0.000000,16.000000) scale(0.003333,-0.003333)"
fill="#000000" stroke="none">
<path d="M1184 3651 c-175 -42 -298 -227 -267 -403 23 -133 92 -227 207 -283
93 -45 177 -54 261 -30 70 21 96 35 149 84 186 173 140 468 -94 600 -62 35
-180 50 -256 32z"/>
<path d="M3453 2971 c-101 -39 -161 -119 -170 -229 -7 -79 6 -126 49 -190 130
-189 423 -154 494 60 20 61 15 147 -11 203 -33 68 -114 141 -178 160 -65 19
-130 17 -184 -4z"/>
<path d="M1510 2929 c-69 -16 -177 -41 -240 -55 -63 -15 -162 -38 -220 -51
-58 -14 -114 -27 -125 -29 -11 -2 -31 -6 -45 -9 -14 -2 -45 -7 -70 -10 -25 -3
-76 -10 -115 -14 -193 -25 -491 -1 -619 48 -16 7 -31 10 -33 8 -7 -8 181 -210
253 -272 120 -105 280 -225 299 -225 4 0 19 -8 33 -19 30 -20 214 -97 253
-105 13 -3 35 -8 49 -11 71 -16 116 -20 235 -19 138 1 123 -2 622 113 182 42
308 67 384 76 115 13 142 15 269 15 159 1 212 -5 317 -31 43 -11 86 -21 96
-24 26 -6 37 -15 37 -29 0 -7 26 -37 58 -67 81 -75 100 -90 171 -138 217 -148
415 -179 652 -105 25 8 54 16 65 18 32 7 177 47 184 51 7 4 11 5 135 30 120
24 178 29 305 28 74 -1 130 -6 158 -16 23 -8 42 -11 42 -7 0 15 -178 177 -246
225 -68 47 -215 122 -255 130 -11 2 -28 6 -37 9 -40 12 -82 17 -152 16 -71 0
-87 -2 -152 -16 -15 -3 -29 -5 -30 -4 -2 0 -29 -8 -60 -19 -32 -11 -58 -18
-58 -16 0 3 -12 0 -27 -6 -24 -9 -155 -46 -193 -54 -8 -2 -35 -8 -60 -14 -123
-28 -190 -35 -310 -34 -192 1 -184 -1 -245 73 -116 142 -338 335 -485 421 -88
52 -178 98 -206 104 -10 2 -37 11 -59 18 -92 33 -179 46 -314 45 -114 0 -156
-5 -261 -29z"/>
<path d="M2100 1530 l0 -40 120 0 120 0 0 -365 0 -365 45 0 45 0 0 365 0 365
115 0 115 0 0 40 0 40 -280 0 -280 0 0 -40z"/>
<path d="M1784 1460 c-103 -21 -194 -92 -241 -189 -25 -51 -28 -66 -28 -171 0
-133 15 -178 84 -253 72 -78 192 -111 319 -87 98 17 112 27 112 71 l0 37 -42
-21 c-28 -13 -70 -22 -120 -25 -70 -4 -83 -2 -134 23 -195 95 -192 424 5 527
67 35 163 39 241 9 l50 -19 0 43 0 43 -63 11 c-72 12 -123 13 -183 1z"/>
<path d="M2981 1454 c-69 -18 -108 -43 -160 -99 -69 -75 -85 -121 -85 -255 -1
-133 14 -177 83 -253 72 -78 192 -111 319 -87 98 17 112 27 112 71 l0 37 -42
-21 c-28 -13 -70 -22 -120 -25 -70 -4 -83 -2 -134 23 -195 95 -192 424 5 527
67 35 163 39 241 9 l50 -19 0 43 0 43 -63 11 c-83 14 -140 13 -206 -5z"/>
</g>
</svg>
